<svg width="43" height="33" viewBox="0 0 43 33" fill="none" xmlns="http://www.w3.org/2000/svg">
<g clip-path="url(#clip0)">
<path d="M0.84 29.084C0.7 29.084 0.574 29.042 0.462 28.958C0.35 28.846 0.294 28.72 0.294 28.58C0.294 28.132 0.616 27.376 1.26 26.312C1.624 25.696 1.806 25.304 1.806 25.136C2.086 23.932 2.73 21.916 3.738 19.088C3.85 18.78 3.962 18.458 4.074 18.122C4.186 17.758 4.312 17.38 4.452 16.988C4.536 16.708 4.634 16.288 4.746 15.728C4.83 15.308 4.956 14.832 5.124 14.3C5.236 13.964 5.348 13.684 5.46 13.46C5.992 12.2 7.042 9.176 8.61 4.388C8.666 4.276 8.778 3.996 8.946 3.548C9.114 3.072 9.212 2.624 9.24 2.204C9.38 2.26 9.702 2.302 10.206 2.33C10.738 2.358 11.102 2.372 11.298 2.372C12.362 2.4 13.188 2.442 13.776 2.498C14.364 2.554 14.7 2.68 14.784 2.876C14.784 3.436 14.966 4.248 15.33 5.312C15.694 6.376 15.876 6.936 15.876 6.992C16.24 9.036 16.646 10.66 17.094 11.864C17.57 13.068 18.228 14.44 19.068 15.98C19.908 18.64 20.958 21.342 22.218 24.086C22.302 24.506 22.526 25.108 22.89 25.892C23.366 26.9 23.688 27.712 23.856 28.328C23.716 28.552 23.324 28.692 22.68 28.748C22.036 28.804 21.028 28.832 19.656 28.832C19.152 28.832 18.732 28.804 18.396 28.748C18.06 28.664 17.836 28.496 17.724 28.244C17.472 27.74 17.094 27.068 16.59 26.228C15.918 24.996 15.47 24.128 15.246 23.624C14.35 23.596 13.328 23.526 12.18 23.414C11.368 23.33 10.78 23.288 10.416 23.288C9.604 23.288 8.988 23.358 8.568 23.498C8.176 23.638 7.896 23.834 7.728 24.086C7.56 24.338 7.392 24.73 7.224 25.262C7.14 25.598 6.986 26.046 6.762 26.606C6.426 27.334 6.062 28.006 5.67 28.622C5.278 29.238 4.984 29.546 4.788 29.546C3.752 29.238 2.436 29.084 0.84 29.084ZM9.828 2.96C9.828 3.24 9.73 3.548 9.534 3.884C9.506 3.968 9.45 4.108 9.366 4.304C9.282 4.5 9.24 4.696 9.24 4.892C9.604 4.668 10.178 4.164 10.962 3.38L11.088 3.506C11.144 3.506 11.214 3.464 11.298 3.38C11.074 3.324 10.85 3.24 10.626 3.128C10.402 3.016 10.136 2.96 9.828 2.96ZM11.298 21.062C12.166 20.502 12.81 20.082 13.23 19.802C13.65 19.494 13.86 19.298 13.86 19.214C13.86 19.186 13.804 19.144 13.692 19.088V18.626C13.468 18.626 13.216 18.738 12.936 18.962C12.684 19.186 12.53 19.312 12.474 19.34C12.418 19.368 12.264 19.48 12.012 19.676C11.788 19.872 11.592 19.97 11.424 19.97L12.726 18.626C12.642 18.626 12.348 18.794 11.844 19.13C11.732 19.214 11.522 19.354 11.214 19.55C10.906 19.718 10.668 19.802 10.5 19.802C10.36 19.942 10.08 20.194 9.66 20.558C9.268 20.894 8.974 21.09 8.778 21.146C8.722 21.118 8.666 21.09 8.61 21.062C8.554 21.006 8.498 20.964 8.442 20.936C8.442 20.852 8.708 20.558 9.24 20.054C9.772 19.55 10.108 19.298 10.248 19.298C10.276 19.298 10.304 19.326 10.332 19.382C10.388 19.41 10.416 19.438 10.416 19.466C10.444 19.438 10.57 19.27 10.794 18.962C11.018 18.626 11.284 18.346 11.592 18.122C11.508 18.094 11.27 18.08 10.878 18.08C10.458 18.08 9.982 18.304 9.45 18.752C8.918 19.2 8.568 19.564 8.4 19.844C8.316 19.732 8.26 19.676 8.232 19.676C8.148 19.676 8.064 19.774 7.98 19.97C7.896 20.166 7.756 20.306 7.56 20.39C7.504 20.278 7.448 20.138 7.392 19.97C7.364 19.802 7.35 19.69 7.35 19.634C7.35 19.522 7.448 19.368 7.644 19.172C7.868 18.948 8.008 18.808 8.064 18.752C8.484 18.388 8.736 18.108 8.82 17.912L8.778 17.786L9.786 17.324H13.734L12.726 14.804C12.754 14.72 12.628 14.328 12.348 13.628C12.068 12.928 11.872 12.55 11.76 12.494C11.732 12.55 11.634 12.746 11.466 13.082C11.298 13.39 11.13 13.544 10.962 13.544C10.962 14.048 10.836 14.594 10.584 15.182C10.36 15.77 10.094 16.274 9.786 16.694C9.478 17.114 9.226 17.324 9.03 17.324C8.974 17.296 8.89 17.254 8.778 17.198C8.666 17.114 8.61 17.044 8.61 16.988C8.61 16.792 8.806 16.302 9.198 15.518C9.59 14.846 9.786 14.398 9.786 14.174L8.946 14.51L8.904 14.384C8.904 14.244 9.002 14.132 9.198 14.048C9.394 13.936 9.59 13.866 9.786 13.838C9.954 13.67 10.122 13.446 10.29 13.166C10.486 12.886 10.64 12.662 10.752 12.494C10.836 12.41 11.004 12.102 11.256 11.57C11.536 11.01 11.732 10.702 11.844 10.646C11.872 10.674 11.928 10.73 12.012 10.814C12.124 10.87 12.208 10.94 12.264 11.024C12.292 11.052 12.362 11.248 12.474 11.612C12.586 11.976 12.67 12.158 12.726 12.158H13.02C13.02 12.214 13.006 12.284 12.978 12.368C12.95 12.452 12.936 12.55 12.936 12.662C12.936 12.802 13.006 12.872 13.146 12.872L13.272 12.83C13.468 12.494 13.902 12.116 14.574 11.696C14.854 11.5 15.064 11.346 15.204 11.234C15.344 11.094 15.414 10.954 15.414 10.814L15.246 10.478C15.218 10.758 14.938 11.052 14.406 11.36C13.874 11.668 13.454 11.822 13.146 11.822C12.95 11.822 12.852 11.752 12.852 11.612C12.852 11.472 12.992 11.192 13.272 10.772C13.552 10.352 13.706 10.1 13.734 10.016C14.126 9.764 14.63 9.33 15.246 8.714C15.218 8.686 15.204 8.644 15.204 8.588C15.204 8.532 15.218 8.462 15.246 8.378C15.274 8.294 15.288 8.21 15.288 8.126C15.092 8.126 14.854 8.224 14.574 8.42C14.294 8.616 14.07 8.714 13.902 8.714C14.014 8.574 14.182 8.42 14.406 8.252C14.658 8.056 14.84 7.888 14.952 7.748C15.064 7.608 15.12 7.426 15.12 7.202C15.12 7.062 14.966 6.516 14.658 5.564C14.35 4.584 14.098 3.856 13.902 3.38C13.874 3.408 13.832 3.422 13.776 3.422C13.692 3.422 13.468 3.38 13.104 3.296C12.768 3.212 12.544 3.17 12.432 3.17C11.984 3.17 11.76 3.184 11.76 3.212L10.962 4.052C10.766 4.332 10.444 4.64 9.996 4.976C9.408 5.508 9.002 5.914 8.778 6.194C8.918 6.194 9.534 5.802 10.626 5.018L11.592 4.388C11.844 4.22 12.11 4.052 12.39 3.884C12.698 3.688 12.922 3.562 13.062 3.506H13.398C13.314 3.674 13.104 3.856 12.768 4.052C12.432 4.22 12.208 4.374 12.096 4.514L13.398 3.842C13.426 3.87 13.44 3.94 13.44 4.052C13.44 4.192 13.384 4.29 13.272 4.346C13.16 4.374 13.048 4.43 12.936 4.514C12.964 4.486 12.404 5.004 11.256 6.068C10.444 6.852 9.842 7.412 9.45 7.748C9.058 8.056 8.666 8.252 8.274 8.336L8.442 8L8.148 8.168C8.092 8.168 8.036 8.154 7.98 8.126C7.952 8.098 7.938 8.07 7.938 8.042C7.854 8.21 7.812 8.364 7.812 8.504C7.644 8.672 7.532 8.896 7.476 9.176C7.42 9.428 7.378 9.778 7.35 10.226C7.35 10.814 7.28 11.29 7.14 11.654C7.196 11.598 7.336 11.486 7.56 11.318C7.784 11.15 8.008 11.066 8.232 11.066C8.344 11.066 8.498 10.94 8.694 10.688C8.918 10.408 9.142 10.156 9.366 9.932C9.59 9.708 9.842 9.568 10.122 9.512V9.89C9.982 9.89 9.87 9.96 9.786 10.1C9.702 10.24 9.59 10.324 9.45 10.352C9.45 10.38 9.464 10.408 9.492 10.436C9.548 10.464 9.576 10.478 9.576 10.478C9.8 10.478 9.996 10.422 10.164 10.31C10.332 10.17 10.472 10.072 10.584 10.016L10.626 10.184C10.598 10.24 10.374 10.394 9.954 10.646C9.534 10.898 9.254 11.066 9.114 11.15C8.974 11.262 8.806 11.374 8.61 11.486C8.414 11.57 8.274 11.64 8.19 11.696C7.714 11.892 7.406 12.046 7.266 12.158C7.042 12.326 6.818 12.648 6.594 13.124C6.37 13.6 6.174 14.062 6.006 14.51C5.866 14.958 5.782 15.252 5.754 15.392C5.978 15.392 6.174 15.294 6.342 15.098C6.538 14.902 6.692 14.692 6.804 14.468C6.944 14.244 7.042 14.09 7.098 14.006H6.93C6.762 14.006 6.664 13.95 6.636 13.838C6.692 13.838 6.804 13.726 6.972 13.502C7.168 13.25 7.336 13.124 7.476 13.124C7.532 13.124 7.574 13.138 7.602 13.166L8.148 12.494C8.176 12.494 8.232 12.522 8.316 12.578C8.4 12.606 8.442 12.676 8.442 12.788C8.414 12.844 8.33 12.942 8.19 13.082C8.05 13.194 7.966 13.278 7.938 13.334C7.798 13.474 7.616 13.768 7.392 14.216C7.336 14.3 7.196 14.524 6.972 14.888C6.776 15.224 6.594 15.49 6.426 15.686C6.258 15.882 6.104 15.98 5.964 15.98H5.628L5.124 16.988C5.432 16.988 5.838 16.736 6.342 16.232C6.65 15.952 6.916 15.742 7.14 15.602C7.392 15.434 7.658 15.35 7.938 15.35L7.266 15.98L8.484 15.35V15.518L8.82 15.182C8.96 15.322 9.03 15.406 9.03 15.434C9.03 15.546 8.792 15.798 8.316 16.19C7.868 16.554 7.378 16.932 6.846 17.324C6.37 17.688 5.922 18.038 5.502 18.374C5.11 18.682 4.914 18.878 4.914 18.962H5.082C5.082 19.13 4.928 19.326 4.62 19.55C4.34 19.746 4.172 19.886 4.116 19.97C3.92 20.222 3.738 20.67 3.57 21.314C3.402 21.93 3.318 22.462 3.318 22.91L4.452 22.112C4.676 22.196 4.956 22.238 5.292 22.238V22.616C4.62 22.616 4.004 22.77 3.444 23.078C2.884 23.358 2.604 23.806 2.604 24.422C2.8 24.338 3.108 24.086 3.528 23.666C3.752 23.442 3.976 23.246 4.2 23.078C4.452 22.882 4.676 22.784 4.872 22.784C5.18 22.784 5.334 22.896 5.334 23.12L5.292 23.288L5.124 23.12C5.012 23.148 4.844 23.218 4.62 23.33C4.424 23.414 4.326 23.498 4.326 23.582C4.326 23.582 4.34 23.596 4.368 23.624C4.396 23.624 4.438 23.624 4.494 23.624C4.662 23.624 4.816 23.554 4.956 23.414V23.624C4.424 23.82 3.85 24.128 3.234 24.548C2.618 24.94 2.31 25.318 2.31 25.682C2.338 25.738 2.38 25.808 2.436 25.892C2.52 25.976 2.576 26.032 2.604 26.06C2.772 26.004 2.856 25.892 2.856 25.724H2.604C2.688 25.668 2.786 25.584 2.898 25.472C3.038 25.332 3.136 25.262 3.192 25.262C3.332 25.262 3.43 25.416 3.486 25.724V25.934C3.402 26.018 3.164 26.186 2.772 26.438C2.408 26.662 2.1 26.928 1.848 27.236C1.596 27.516 1.47 27.796 1.47 28.076C1.47 28.272 1.708 28.412 2.184 28.496C2.66 28.58 3.178 28.622 3.738 28.622L4.788 28.58C5.46 27.04 6.09 25.766 6.678 24.758L6.09 25.094L5.964 25.052C5.908 25.08 5.838 25.15 5.754 25.262C5.698 25.374 5.642 25.486 5.586 25.598C5.586 25.318 5.698 25.024 5.922 24.716C6.146 24.38 6.398 24.212 6.678 24.212L6.93 24.296C7.238 23.792 7.518 23.456 7.77 23.288C7.658 23.26 7.546 23.204 7.434 23.12C7.322 23.036 7.266 22.952 7.266 22.868C7.266 22.784 7.588 22.56 8.232 22.196C8.344 22.14 8.568 22.014 8.904 21.818C9.24 21.594 9.422 21.426 9.45 21.314C9.534 21.426 9.772 21.482 10.164 21.482C9.1 22.042 8.568 22.35 8.568 22.406C8.568 22.658 8.638 22.784 8.778 22.784H10.29C10.29 22.644 10.234 22.532 10.122 22.448L10.416 22.406C10.556 22.406 10.738 22.434 10.962 22.49C11.214 22.546 11.41 22.574 11.55 22.574C11.662 22.574 11.774 22.434 11.886 22.154C12.026 21.874 12.152 21.636 12.264 21.44C12.376 21.244 12.53 21.146 12.726 21.146C12.642 21.398 12.544 21.552 12.432 21.608L12.6 21.65C12.768 21.65 12.922 21.594 13.062 21.482C13.23 21.342 13.342 21.258 13.398 21.23C13.426 21.202 13.538 21.118 13.734 20.978C13.93 20.838 14.154 20.768 14.406 20.768L14.532 20.81C14.392 20.866 13.986 21.188 13.314 21.776C12.67 22.336 12.32 22.672 12.264 22.784L12.936 22.826C13.272 22.826 13.552 22.728 13.776 22.532C14.028 22.336 14.294 22.056 14.574 21.692C14.938 21.16 15.288 20.81 15.624 20.642C15.624 20.81 15.54 21.062 15.372 21.398C15.232 21.706 15.106 21.93 14.994 22.07C15.218 21.958 15.666 21.566 16.338 20.894C16.842 20.39 17.122 20.138 17.178 20.138C17.206 20.138 17.262 20.152 17.346 20.18C17.458 20.18 17.654 20.18 17.934 20.18C18.27 20.18 18.536 20.166 18.732 20.138C18.732 20.166 18.508 20.334 18.06 20.642C17.64 20.922 17.374 21.104 17.262 21.188C17.178 21.188 17.052 21.062 16.884 20.81L16.926 20.978C16.926 21.258 16.52 21.622 15.708 22.07C14.924 22.49 14.49 22.728 14.406 22.784C14.518 22.784 14.63 22.798 14.742 22.826C14.854 22.854 14.98 22.868 15.12 22.868C15.428 22.868 15.638 22.728 15.75 22.448C15.778 22.56 15.89 22.616 16.086 22.616C16.226 22.616 16.422 22.532 16.674 22.364C16.926 22.196 17.108 22.112 17.22 22.112C17.192 22.196 17.01 22.406 16.674 22.742C16.366 23.05 16.212 23.246 16.212 23.33C16.212 23.498 16.268 23.61 16.38 23.666C16.52 23.722 16.59 23.75 16.59 23.75C16.674 23.75 16.758 23.736 16.842 23.708C16.926 23.68 16.996 23.652 17.052 23.624C17.052 24.156 16.954 24.478 16.758 24.59C16.786 24.674 16.828 24.772 16.884 24.884C16.94 24.968 16.996 25.038 17.052 25.094C17.136 25.066 17.234 25.024 17.346 24.968C17.486 24.884 17.556 24.814 17.556 24.758L17.724 24.926L17.556 25.094C17.668 25.122 17.752 25.416 17.808 25.976C18.284 25.612 18.984 25.206 19.908 24.758C19.936 24.758 19.964 24.786 19.992 24.842C20.048 24.87 20.076 24.898 20.076 24.926C20.076 25.15 19.74 25.43 19.068 25.766C18.424 26.102 18.032 26.298 17.892 26.354C17.948 26.55 18.004 26.676 18.06 26.732C18.172 26.732 18.298 26.718 18.438 26.69C18.578 26.634 18.718 26.606 18.858 26.606L18.228 27.11C18.2 27.11 18.158 27.124 18.102 27.152C18.074 27.18 18.06 27.208 18.06 27.236L18.27 27.53C18.55 27.362 18.872 27.194 19.236 27.026C19.6 26.858 19.838 26.774 19.95 26.774C20.09 26.774 20.314 26.83 20.622 26.942C20.93 27.026 21.182 27.068 21.378 27.068C21.322 27.18 20.314 27.376 18.354 27.656C18.466 27.824 18.578 27.908 18.69 27.908C19.25 27.796 19.656 27.74 19.908 27.74C20.048 27.74 20.3 27.796 20.664 27.908C21.028 27.992 21.756 28.048 22.848 28.076L23.058 27.908C22.75 27.74 22.568 27.334 22.512 26.69C22.456 26.298 22.372 26.004 22.26 25.808C22.176 25.612 22.008 25.514 21.756 25.514C21.588 25.514 21.49 25.612 21.462 25.808C21.462 25.976 21.434 26.116 21.378 26.228C21.35 26.34 21.252 26.396 21.084 26.396C20.048 26.396 19.516 26.382 19.488 26.354C19.74 26.214 20.02 26.06 20.328 25.892C20.664 25.724 20.888 25.598 21 25.514C21.14 25.43 21.21 25.36 21.21 25.304C21.21 25.192 21.294 25.08 21.462 24.968C21.658 24.856 21.756 24.604 21.756 24.212C21.28 24.52 20.944 24.688 20.748 24.716C20.832 24.576 20.93 24.394 21.042 24.17C21.154 23.946 21.21 23.68 21.21 23.372C21.21 23.064 20.888 22.35 20.244 21.23C19.852 20.558 19.628 20.138 19.572 19.97L19.152 18.836C18.536 17.296 18.228 16.344 18.228 15.98H18.06L17.136 16.988C16.828 17.1 16.632 17.254 16.548 17.45H16.884V17.702C15.932 18.486 14.616 19.424 12.936 20.516L11.298 21.062ZM11.76 4.682C11.368 4.822 11.046 4.99 10.794 5.186C10.57 5.354 10.388 5.48 10.248 5.564C9.8 5.788 9.352 6.082 8.904 6.446C8.456 6.81 8.232 7.174 8.232 7.538L8.274 7.664C8.33 7.636 8.526 7.496 8.862 7.244C9.226 6.992 9.506 6.866 9.702 6.866C9.814 6.866 9.926 6.74 10.038 6.488C10.178 6.236 10.318 6.11 10.458 6.11C10.486 6.11 10.584 6.138 10.752 6.194L11.928 5.018L11.76 4.682ZM8.064 9.596C8.4 9.232 8.82 8.882 9.324 8.546C9.828 8.182 10.486 7.748 11.298 7.244C12.39 6.6 12.936 6.194 12.936 6.026V5.858H12.558C12.558 5.69 12.684 5.522 12.936 5.354L13.062 5.564C13.23 5.48 13.412 5.41 13.608 5.354C13.804 5.27 13.958 5.214 14.07 5.186V5.354C14.042 5.494 13.818 5.746 13.398 6.11C12.978 6.446 12.53 6.782 12.054 7.118C11.914 7.202 11.55 7.454 10.962 7.874L10.248 8.504C9.072 9.68 8.288 10.268 7.896 10.268C7.896 10.184 7.924 10.072 7.98 9.932C8.036 9.792 8.064 9.68 8.064 9.596ZM14.07 7.202C14.042 7.062 13.818 6.992 13.398 6.992C13.398 6.768 13.496 6.642 13.692 6.614C13.916 6.586 14.084 6.558 14.196 6.53C14.336 6.502 14.406 6.39 14.406 6.194C14.434 6.222 14.462 6.278 14.49 6.362C14.546 6.418 14.574 6.474 14.574 6.53C14.574 6.614 14.504 6.74 14.364 6.908C14.252 7.048 14.154 7.146 14.07 7.202ZM14.112 7.412C14.168 7.412 14.21 7.426 14.238 7.454C14.294 7.482 14.336 7.51 14.364 7.538C14 7.734 13.398 8.056 12.558 8.504C11.746 8.924 11.116 9.232 10.668 9.428L11.844 8.126L12.684 7.58C12.684 7.776 12.782 7.874 12.978 7.874C13.118 7.874 13.328 7.804 13.608 7.664C13.888 7.496 14.056 7.412 14.112 7.412ZM15.582 8.84C15.442 8.98 15.204 9.204 14.868 9.512C14.56 9.82 14.294 10.114 14.07 10.394C13.846 10.674 13.734 10.926 13.734 11.15C13.818 11.122 14.042 10.982 14.406 10.73C14.77 10.478 15.246 10.24 15.834 10.016C15.778 9.988 15.722 9.848 15.666 9.596C15.61 9.344 15.582 9.092 15.582 8.84ZM12.894 9.47C12.67 9.638 12.334 9.918 11.886 10.31C11.466 10.674 11.158 10.954 10.962 11.15C10.85 11.234 10.584 11.43 10.164 11.738C9.772 12.018 9.408 12.2 9.072 12.284C9.072 12.172 9.31 11.892 9.786 11.444C10.262 10.968 10.794 10.534 11.382 10.142C11.97 9.75 12.474 9.526 12.894 9.47ZM13.188 13.25C13.188 13.53 13.244 13.796 13.356 14.048C13.496 14.3 13.678 14.496 13.902 14.636C13.958 14.552 14.35 14.202 15.078 13.586C15.302 13.362 15.582 13.11 15.918 12.83C16.254 12.522 16.422 12.354 16.422 12.326C16.422 12.27 16.38 12.242 16.296 12.242C16.212 12.242 16.086 12.27 15.918 12.326C15.75 12.354 15.582 12.41 15.414 12.494C15.414 12.242 15.47 12.088 15.582 12.032C15.694 11.976 15.918 11.948 16.254 11.948C16.254 11.528 16.198 11.15 16.086 10.814C15.862 11.094 15.526 11.374 15.078 11.654C14.63 11.934 14.294 12.214 14.07 12.494C14.21 12.494 14.378 12.466 14.574 12.41C14.798 12.354 14.966 12.326 15.078 12.326V12.662C14.994 12.746 14.826 12.802 14.574 12.83C14.322 12.83 14.112 12.844 13.944 12.872C13.776 12.9 13.692 12.984 13.692 13.124C13.692 13.152 13.72 13.208 13.776 13.292C13.86 13.376 13.902 13.446 13.902 13.502C13.902 13.698 13.874 13.796 13.818 13.796C13.762 13.796 13.664 13.726 13.524 13.586C13.384 13.446 13.272 13.334 13.188 13.25ZM14.154 15.518C14.154 15.714 14.238 15.882 14.406 16.022C14.574 16.162 14.658 16.302 14.658 16.442L14.574 16.778C14.938 16.722 15.554 16.47 16.422 16.022C17.318 15.574 17.766 15.224 17.766 14.972C17.766 14.748 17.682 14.636 17.514 14.636C17.346 14.636 17.164 14.734 16.968 14.93C16.772 15.126 16.66 15.238 16.632 15.266C16.128 15.826 15.666 16.176 15.246 16.316L15.162 16.19C15.162 16.078 15.498 15.728 16.17 15.14C16.842 14.552 17.262 14.258 17.43 14.258C17.43 14.09 17.318 14.006 17.094 14.006C16.87 13.978 16.758 13.95 16.758 13.922C16.758 13.894 16.8 13.838 16.884 13.754C16.968 13.67 17.052 13.544 17.136 13.376C17.136 13.236 17.066 13.082 16.926 12.914C16.814 12.718 16.716 12.62 16.632 12.62C16.436 12.62 16.002 12.956 15.33 13.628C14.686 14.272 14.322 14.72 14.238 14.972C14.406 14.916 14.658 14.832 14.994 14.72C15.33 14.58 15.582 14.51 15.75 14.51V14.678C15.61 14.734 15.344 14.874 14.952 15.098C14.588 15.322 14.322 15.462 14.154 15.518ZM9.408 13.376C9.436 13.376 9.464 13.404 9.492 13.46C9.548 13.488 9.576 13.502 9.576 13.502C8.4 14.398 7.672 14.846 7.392 14.846C7.392 14.706 7.686 14.426 8.274 14.006C8.89 13.586 9.268 13.376 9.408 13.376ZM17.556 15.812C17.416 15.868 17.024 16.036 16.38 16.316C15.736 16.568 15.218 16.876 14.826 17.24C14.434 17.604 14.238 18.01 14.238 18.458C15.022 18.262 15.68 17.814 16.212 17.114H16.422C16.506 17.114 16.716 16.918 17.052 16.526C17.388 16.134 17.556 15.896 17.556 15.812ZM7.476 16.316C6.916 16.54 6.328 16.862 5.712 17.282C5.096 17.674 4.788 17.954 4.788 18.122V18.29C4.956 18.234 5.306 18.038 5.838 17.702C6.398 17.338 6.776 17.1 6.972 16.988L7.476 16.316ZM4.116 20.852C4.144 20.824 4.326 20.628 4.662 20.264C5.026 19.872 5.726 19.158 6.762 18.122L6.93 18.206C7.014 18.206 7.098 18.122 7.182 17.954C7.266 17.786 7.364 17.702 7.476 17.702C7.476 17.898 7.42 18.066 7.308 18.206C7.196 18.318 7.014 18.472 6.762 18.668C6.706 18.724 6.58 18.822 6.384 18.962C6.216 19.102 6.118 19.27 6.09 19.466C5.726 19.83 5.404 20.096 5.124 20.264C5.404 20.18 5.74 20.026 6.132 19.802C6.552 19.55 6.832 19.312 6.972 19.088C6.972 19.34 6.832 19.564 6.552 19.76C6.272 19.956 5.88 20.194 5.376 20.474C5.32 20.502 5.152 20.6 4.872 20.768C4.592 20.936 4.452 21.076 4.452 21.188C4.368 21.188 4.284 21.146 4.2 21.062C4.144 20.978 4.116 20.908 4.116 20.852ZM17.64 17.996C17.584 18.108 17.36 18.29 16.968 18.542C16.604 18.766 16.366 18.878 16.254 18.878L16.128 18.836C16.492 18.276 16.94 17.996 17.472 17.996H17.64ZM15.876 19.802C16.016 19.718 16.254 19.536 16.59 19.256C16.646 19.2 16.842 19.046 17.178 18.794C17.542 18.514 17.892 18.346 18.228 18.29C18.2 18.374 17.878 18.682 17.262 19.214C16.674 19.718 16.324 19.97 16.212 19.97H15.876V19.802ZM17.724 19.466C18.06 19.214 18.452 19.088 18.9 19.088C18.592 19.564 18.312 19.802 18.06 19.802C17.836 19.802 17.724 19.69 17.724 19.466ZM17.892 21.608C17.892 21.412 18.074 21.146 18.438 20.81C18.802 20.446 19.04 20.264 19.152 20.264C19.236 20.292 19.306 20.334 19.362 20.39C19.446 20.418 19.516 20.446 19.572 20.474C19.488 20.53 19.152 20.796 18.564 21.272C18.004 21.72 17.668 21.944 17.556 21.944C17.528 21.944 17.486 21.93 17.43 21.902C17.402 21.874 17.388 21.832 17.388 21.776L17.724 21.44L17.892 21.608ZM5.964 21.272C6.076 21.244 6.258 21.216 6.51 21.188C6.762 21.132 6.972 21.006 7.14 20.81L7.224 20.978C7.224 21.174 7.014 21.384 6.594 21.608C6.174 21.832 5.866 21.958 5.67 21.986C5.614 21.958 5.544 21.93 5.46 21.902C5.404 21.846 5.348 21.804 5.292 21.776C5.236 21.776 5.152 21.804 5.04 21.86C4.956 21.916 4.872 21.944 4.788 21.944C5.152 21.468 5.586 21.132 6.09 20.936L5.964 21.272ZM19.236 21.44C19.068 21.664 18.774 21.916 18.354 22.196C17.962 22.476 17.64 22.616 17.388 22.616L17.22 22.574C17.22 22.574 17.234 22.56 17.262 22.532C17.318 22.476 17.36 22.448 17.388 22.448C17.612 22.308 17.906 22.14 18.27 21.944C18.662 21.72 18.984 21.552 19.236 21.44ZM19.698 21.608C19.698 21.804 19.586 22 19.362 22.196C19.166 22.392 18.942 22.574 18.69 22.742C18.466 22.91 18.312 23.036 18.228 23.12L17.892 22.994C17.892 23.19 17.864 23.316 17.808 23.372C17.78 23.428 17.668 23.456 17.472 23.456C17.472 23.176 17.752 22.826 18.312 22.406C18.872 21.986 19.334 21.72 19.698 21.608ZM6.762 22.112C6.846 22.224 6.972 22.28 7.14 22.28C7.14 22.392 6.916 22.63 6.468 22.994C6.02 23.358 5.684 23.61 5.46 23.75C5.544 23.554 5.754 23.316 6.09 23.036C6.482 22.7 6.706 22.392 6.762 22.112ZM19.572 22.91C18.816 23.526 18.032 23.918 17.22 24.086C17.22 24.03 17.626 23.792 18.438 23.372C19.25 22.924 19.852 22.616 20.244 22.448C20.328 22.532 20.37 22.686 20.37 22.91C20.174 23.162 19.88 23.442 19.488 23.75C19.096 24.03 18.844 24.212 18.732 24.296L18.69 24.17C18.718 24.114 18.788 24.016 18.9 23.876C19.04 23.708 19.152 23.554 19.236 23.414C19.264 23.414 19.306 23.442 19.362 23.498C19.446 23.526 19.516 23.554 19.572 23.582V22.91ZM20.664 23.75C20.664 23.918 20.552 24.072 20.328 24.212C20.104 24.352 19.894 24.436 19.698 24.464V24.296C19.698 24.268 19.824 24.184 20.076 24.044C20.328 23.876 20.524 23.778 20.664 23.75ZM5.124 23.96C5.068 24.072 4.942 24.198 4.746 24.338C4.578 24.45 4.452 24.548 4.368 24.632L4.074 24.59C4.158 24.45 4.312 24.324 4.536 24.212C4.76 24.072 4.956 23.988 5.124 23.96ZM5.67 24.464C5.67 24.464 5.572 24.618 5.376 24.926C5.264 25.458 5.012 25.822 4.62 26.018C4.228 26.214 4.018 26.326 3.99 26.354C3.962 26.354 3.92 26.326 3.864 26.27C3.808 26.214 3.766 26.172 3.738 26.144C3.738 25.892 3.976 25.57 4.452 25.178C4.928 24.786 5.334 24.548 5.67 24.464ZM2.478 27.992C2.478 27.768 2.632 27.516 2.94 27.236C3.248 26.928 3.528 26.718 3.78 26.606C3.752 26.83 3.612 27.166 3.36 27.614C3.136 28.034 2.926 28.244 2.73 28.244C2.562 28.244 2.478 28.16 2.478 27.992Z" fill="black"/>
<path d="M28.156 28.832C27.82 28.832 27.596 28.454 27.484 27.698C27.372 26.942 27.316 26.242 27.316 25.598C27.316 24.954 27.316 24.548 27.316 24.38C27.204 23.232 26.98 21.846 26.644 20.222C26.644 18.962 26.672 17.38 26.728 15.476C26.784 13.796 26.812 12.522 26.812 11.654C26.812 11.318 26.756 11.094 26.644 10.982C26.616 10.562 26.56 9.96 26.476 9.176C26.42 8.364 26.364 7.972 26.308 8H23.494L23.158 7.832C22.598 7.888 22.234 7.916 22.066 7.916C21.702 7.916 21.24 7.86 20.68 7.748C20.12 7.636 19.84 7.482 19.84 7.286L19.714 3.506C19.686 3.45 19.658 3.366 19.63 3.254C19.602 3.142 19.574 3.058 19.546 3.002C19.546 2.666 20.498 2.498 22.402 2.498C22.682 2.498 23.046 2.554 23.494 2.666C26.686 2.666 28.786 2.722 29.794 2.834C30.018 2.862 30.382 2.876 30.886 2.876C30.998 2.876 31.278 2.89 31.726 2.918C32.174 2.946 32.566 3.03 32.902 3.17H40.21C40.462 3.17 40.616 3.198 40.672 3.254C40.728 3.31 40.756 3.436 40.756 3.632C40.756 3.912 40.714 4.346 40.63 4.934C40.546 5.214 40.504 5.536 40.504 5.9L40.546 7.286L40.378 7.496L39.034 7.454C38.474 7.454 37.802 7.524 37.018 7.664C36.822 7.692 36.472 7.734 35.968 7.79C35.464 7.846 35.016 7.874 34.624 7.874L33.826 7.832C33.574 7.832 33.266 7.888 32.902 8V8.21C32.902 8.77 33.014 9.554 33.238 10.562L33.406 11.486C33.77 13.53 33.952 15.896 33.952 18.584C33.952 19.536 33.91 20.474 33.826 21.398C33.77 22.574 33.742 23.484 33.742 24.128C33.742 24.828 33.784 25.514 33.868 26.186C33.924 27.138 33.952 27.838 33.952 28.286C33.952 28.566 33.91 28.79 33.826 28.958C33.77 29.098 33.63 29.168 33.406 29.168L28.156 28.832ZM20.68 5.9C20.512 6.236 20.428 6.432 20.428 6.488H20.68C20.848 6.488 21.044 6.208 21.268 5.648C21.492 5.144 21.716 4.724 21.94 4.388C22.164 4.024 22.458 3.73 22.822 3.506C22.654 3.562 22.542 3.59 22.486 3.59C22.374 3.59 22.276 3.576 22.192 3.548C22.108 3.52 22.038 3.506 21.982 3.506L21.436 3.548C21.324 3.548 21.226 3.534 21.142 3.506C20.862 3.506 20.652 3.548 20.512 3.632C20.372 3.688 20.302 3.842 20.302 4.094C20.302 4.346 20.372 4.64 20.512 4.976C20.624 5.368 20.68 5.676 20.68 5.9ZM24.292 6.152C24.796 5.956 25.412 5.606 26.14 5.102C26.868 4.57 27.414 4.094 27.778 3.674C27.666 3.618 27.47 3.59 27.19 3.59C26.938 3.59 26.63 3.73 26.266 4.01C25.902 4.262 25.664 4.444 25.552 4.556C25.524 4.556 25.384 4.738 25.132 5.102C24.88 5.438 24.6 5.732 24.292 5.984V6.152ZM24.628 3.632C24.012 3.632 23.382 3.856 22.738 4.304C22.094 4.724 21.772 5.242 21.772 5.858C22.024 5.858 22.654 5.564 23.662 4.976C24.67 4.36 25.272 3.926 25.468 3.674L24.628 3.632ZM25.972 5.648C25.748 5.872 25.412 6.11 24.964 6.362C24.516 6.586 24.25 6.74 24.166 6.824C24.138 6.824 24.096 6.852 24.04 6.908C24.012 6.936 23.984 6.95 23.956 6.95L24.922 6.992C25.678 6.992 26.476 6.852 27.316 6.572C28.184 6.264 28.618 5.914 28.618 5.522V5.312C28.478 5.452 28.268 5.522 27.988 5.522H27.778C27.946 5.298 28.198 5.116 28.534 4.976C28.87 4.808 29.206 4.682 29.542 4.598C29.878 4.514 30.088 4.458 30.172 4.43C30.284 4.402 30.522 4.332 30.886 4.22C31.278 4.108 31.516 3.982 31.6 3.842C31.348 3.842 31.124 3.856 30.928 3.884C30.76 3.912 30.62 3.926 30.508 3.926C30.424 3.926 30.298 3.898 30.13 3.842H28.744L28.618 4.178C28.758 4.178 28.898 4.15 29.038 4.094C29.178 4.038 29.29 4.01 29.374 4.01C29.43 4.01 29.514 4.066 29.626 4.178C29.486 4.29 29.318 4.402 29.122 4.514C28.926 4.598 28.758 4.64 28.618 4.64L28.114 4.514C28.142 4.654 27.848 5.046 27.232 5.69C26.616 6.306 26.168 6.614 25.888 6.614C25.888 6.586 25.874 6.558 25.846 6.53C25.818 6.474 25.804 6.418 25.804 6.362C25.832 6.278 25.902 6.152 26.014 5.984C26.126 5.816 26.224 5.704 26.308 5.648H25.972ZM33.658 4.22C33.658 4.444 33.574 4.64 33.406 4.808C33.238 4.976 33.14 5.088 33.112 5.144C32.748 5.452 32.566 5.732 32.566 5.984L35.926 4.01V3.842L33.616 4.01L33.658 4.22ZM38.11 3.926C37.634 3.926 37.284 3.954 37.06 4.01C37.004 4.01 36.402 4.444 35.254 5.312C34.134 6.152 33.518 6.656 33.406 6.824H33.616L34.918 5.816V5.984C35.03 5.844 35.24 5.69 35.548 5.522C35.884 5.326 36.22 5.144 36.556 4.976C37.592 4.472 38.11 4.122 38.11 3.926ZM27.652 7.832C27.652 7.86 27.666 7.902 27.694 7.958C27.75 8.014 27.792 8.042 27.82 8.042C28.604 7.79 29.514 7.202 30.55 6.278C31.614 5.354 32.174 4.878 32.23 4.85C32.342 4.794 32.496 4.738 32.692 4.682C32.888 4.598 33 4.514 33.028 4.43C33.084 4.346 33.112 4.206 33.112 4.01C32.944 4.122 32.748 4.192 32.524 4.22C32.328 4.22 32.132 4.262 31.936 4.346C31.404 4.57 30.788 4.962 30.088 5.522C29.528 5.914 29.052 6.222 28.66 6.446C28.268 6.67 27.862 6.838 27.442 6.95L27.652 7.286C27.736 7.202 27.862 7.132 28.03 7.076C28.226 6.992 28.366 6.95 28.45 6.95L27.652 7.832ZM38.866 4.976C38.474 5.116 37.998 5.382 37.438 5.774C36.878 6.138 36.486 6.488 36.262 6.824C36.99 6.46 37.69 6.096 38.362 5.732C39.062 5.368 39.524 5.116 39.748 4.976V4.052C39.58 4.052 39.384 4.15 39.16 4.346C38.936 4.514 38.824 4.682 38.824 4.85C38.824 4.906 38.838 4.948 38.866 4.976ZM22.192 6.11C21.968 6.11 21.674 6.348 21.31 6.824H22.99C23.102 6.824 23.312 6.614 23.62 6.194C23.956 5.774 24.236 5.368 24.46 4.976L22.318 6.152L22.192 6.11ZM34.288 6.824C34.316 6.852 34.358 6.88 34.414 6.908C34.47 6.936 34.526 6.95 34.582 6.95C35.002 6.95 35.464 6.782 35.968 6.446C36.5 6.11 36.92 5.732 37.228 5.312C36.92 5.312 36.248 5.648 35.212 6.32C34.624 6.628 34.316 6.796 34.288 6.824ZM39.832 5.522C39.636 5.69 39.258 5.9 38.698 6.152C38.166 6.376 37.732 6.544 37.396 6.656L39.832 6.824V5.522ZM27.652 9.302C27.652 9.414 27.694 9.47 27.778 9.47L29.416 8.672C29.472 8.672 29.542 8.49 29.626 8.126L29.584 7.874L30.13 8C30.298 7.916 30.578 7.72 30.97 7.412C31.39 7.076 31.656 6.824 31.768 6.656C31.628 6.628 31.558 6.53 31.558 6.362C31.558 6.25 31.572 6.18 31.6 6.152C30.62 6.992 29.57 7.65 28.45 8.126C28.45 8.182 28.464 8.238 28.492 8.294C28.548 8.322 28.59 8.336 28.618 8.336C28.702 8.336 28.8 8.308 28.912 8.252C29.024 8.168 29.15 8.126 29.29 8.126C29.262 8.266 29.192 8.378 29.08 8.462C28.968 8.518 28.842 8.574 28.702 8.63C28.59 8.658 28.506 8.686 28.45 8.714C27.918 8.826 27.652 9.022 27.652 9.302ZM31.936 12.536C31.936 12.9 31.712 13.236 31.264 13.544C30.816 13.852 30.172 14.216 29.332 14.636C28.66 14.972 28.254 15.196 28.114 15.308C27.75 15.616 27.568 16.33 27.568 17.45C27.736 17.45 28.324 17.058 29.332 16.274C30.368 15.462 30.956 14.958 31.096 14.762C30.788 14.762 30.354 14.944 29.794 15.308V15.098C29.542 15.462 28.982 15.742 28.114 15.938V15.56C28.366 15.56 28.632 15.504 28.912 15.392C29.192 15.252 29.57 15.042 30.046 14.762C30.578 14.426 31.04 14.174 31.432 14.006C31.824 13.81 32.23 13.712 32.65 13.712C32.65 12.816 32.566 11.612 32.398 10.1C32.23 8.56 32.048 7.79 31.852 7.79C31.6 7.79 31.096 8.056 30.34 8.588C30.256 8.644 30.004 8.798 29.584 9.05C29.192 9.274 28.87 9.414 28.618 9.47H29.08L31.432 8.672L31.6 8.63C31.768 8.63 31.88 8.686 31.936 8.798C31.936 8.798 31.656 9.078 31.096 9.638C30.956 9.75 30.718 9.89 30.382 10.058C30.046 10.198 29.766 10.352 29.542 10.52C29.318 10.688 29.206 10.842 29.206 10.982C29.402 10.982 29.808 10.912 30.424 10.772C30.984 10.604 31.418 10.52 31.726 10.52L31.768 10.94C31.768 11.08 31.712 11.192 31.6 11.276C31.488 11.36 31.278 11.472 30.97 11.612C30.69 11.724 30.522 11.836 30.466 11.948C30.074 12.2 29.57 12.704 28.954 13.46L31.432 12.284C31.488 12.284 31.586 12.312 31.726 12.368C31.866 12.396 31.936 12.452 31.936 12.536ZM30.382 9.47C29.738 9.47 29.108 9.61 28.492 9.89C27.904 10.17 27.61 10.576 27.61 11.108C28.002 11.108 28.366 11.01 28.702 10.814C29.038 10.59 29.36 10.352 29.668 10.1C29.976 9.82 30.214 9.61 30.382 9.47ZM28.954 11.108C28.786 11.108 28.534 11.248 28.198 11.528C27.862 11.78 27.68 11.92 27.652 11.948L27.778 15.308C27.862 15.224 28.212 14.972 28.828 14.552C29.472 14.104 29.794 13.782 29.794 13.586C29.598 13.642 29.318 13.754 28.954 13.922C28.618 14.062 28.338 14.132 28.114 14.132C28.086 14.104 28.044 14.062 27.988 14.006C27.96 13.95 27.932 13.908 27.904 13.88C27.904 13.824 28.016 13.684 28.24 13.46C28.492 13.236 28.66 13.068 28.744 12.956C28.856 12.872 29.276 12.564 30.004 12.032C30.732 11.5 31.096 11.08 31.096 10.772C30.872 10.94 30.522 11.094 30.046 11.234C29.598 11.374 29.234 11.444 28.954 11.444V11.108ZM31.894 16.988C31.894 17.268 31.712 17.548 31.348 17.828C31.012 18.08 30.48 18.43 29.752 18.878C29.22 19.158 28.842 19.396 28.618 19.592L32.104 18.248C32.272 18.332 32.398 18.374 32.482 18.374C32.79 18.374 32.944 18.08 32.944 17.492C32.944 17.324 32.902 17.156 32.818 16.988C32.762 16.82 32.734 16.638 32.734 16.442C32.734 16.246 32.762 16.078 32.818 15.938C32.874 15.798 32.902 15.686 32.902 15.602C32.902 15.406 32.86 15.154 32.776 14.846C32.72 14.538 32.65 14.3 32.566 14.132C32.538 14.3 32.398 14.51 32.146 14.762C31.922 15.014 31.74 15.196 31.6 15.308C31.292 15.308 31.012 15.392 30.76 15.56C30.508 15.728 30.172 16.008 29.752 16.4C29.248 16.904 28.814 17.24 28.45 17.408V17.618C28.814 17.618 29.164 17.576 29.5 17.492C29.836 17.408 30.046 17.352 30.13 17.324C30.858 17.1 31.446 16.988 31.894 16.988ZM27.946 19.76L28.702 19.046C28.982 18.766 29.276 18.5 29.584 18.248C29.892 17.996 30.228 17.786 30.592 17.618C30.2 17.618 29.696 17.702 29.08 17.87C28.408 18.038 27.932 18.122 27.652 18.122V19.928L27.946 19.76ZM28.576 27.782C28.576 27.922 28.59 28.02 28.618 28.076C28.674 28.132 28.786 28.174 28.954 28.202C29.15 28.202 29.29 28.174 29.374 28.118C29.486 28.034 29.584 27.908 29.668 27.74C29.808 27.544 29.92 27.404 30.004 27.32C30.116 27.236 30.312 27.194 30.592 27.194C30.788 27.194 30.9 27.264 30.928 27.404C30.872 27.488 30.774 27.558 30.634 27.614C30.494 27.67 30.368 27.698 30.256 27.698C30.732 27.838 31.25 27.964 31.81 28.076C32.398 28.16 32.832 28.216 33.112 28.244C33.112 28.076 33.056 27.838 32.944 27.53C32.832 27.222 32.776 26.998 32.776 26.858C32.776 26.83 32.79 26.802 32.818 26.774C32.874 26.746 32.902 26.732 32.902 26.732C32.874 26.676 32.818 26.634 32.734 26.606C32.65 26.578 32.566 26.564 32.482 26.564C32.37 26.564 32.3 26.634 32.272 26.774C32.272 26.914 32.244 27.026 32.188 27.11C32.132 27.194 31.978 27.236 31.726 27.236C31.53 27.236 31.404 27.208 31.348 27.152C31.292 27.096 31.25 27.026 31.222 26.942C31.194 26.858 31.152 26.788 31.096 26.732C31.152 26.648 31.222 26.564 31.306 26.48C31.418 26.368 31.516 26.284 31.6 26.228C31.46 26.228 31.208 26.284 30.844 26.396C30.48 26.48 30.214 26.522 30.046 26.522C30.046 26.326 30.606 26.046 31.726 25.682C32.426 25.458 32.776 25.304 32.776 25.22V22.238C32.832 22.238 32.874 22.028 32.902 21.608C32.93 21.16 32.944 20.852 32.944 20.684C32.944 19.508 33 18.92 33.112 18.92L33.238 18.752L32.902 18.416C32.79 18.668 32.636 18.878 32.44 19.046C32.244 19.186 32.006 19.34 31.726 19.508C31.474 19.648 31.264 19.788 31.096 19.928C30.984 20.012 30.76 20.166 30.424 20.39C30.116 20.614 29.78 20.838 29.416 21.062V21.23C29.752 21.202 30.144 21.104 30.592 20.936C31.096 20.74 31.558 20.642 31.978 20.642C31.95 20.95 31.768 21.244 31.432 21.524C31.096 21.804 30.62 22.14 30.004 22.532C29.304 22.924 28.954 23.204 28.954 23.372C29.094 23.288 29.36 23.148 29.752 22.952C30.172 22.728 30.55 22.56 30.886 22.448C31.222 22.308 31.544 22.238 31.852 22.238C31.992 22.238 32.09 22.252 32.146 22.28C32.202 22.308 32.23 22.406 32.23 22.574C32.23 22.854 31.544 23.344 30.172 24.044C29.976 24.156 29.71 24.324 29.374 24.548C29.066 24.744 28.814 24.912 28.618 25.052C28.87 25.052 29.22 24.968 29.668 24.8C30.06 24.632 30.368 24.548 30.592 24.548C30.62 24.548 30.662 24.576 30.718 24.632C30.774 24.66 30.802 24.688 30.802 24.716C30.802 24.688 30.858 24.618 30.97 24.506C31.082 24.394 31.18 24.31 31.264 24.254C31.376 24.254 31.488 24.31 31.6 24.422C31.74 24.506 31.81 24.59 31.81 24.674C31.81 24.87 31.628 25.08 31.264 25.304C30.9 25.528 30.34 25.85 29.584 26.27C28.996 26.578 28.716 26.732 28.744 26.732C28.884 26.76 28.954 26.872 28.954 27.068C28.954 27.18 28.884 27.306 28.744 27.446C28.632 27.558 28.576 27.67 28.576 27.782ZM27.736 20.726C27.736 20.922 27.736 21.216 27.736 21.608C27.736 21.972 27.764 22.294 27.82 22.574C27.876 22.854 27.974 23.12 28.114 23.372C28.254 23.204 28.548 22.98 28.996 22.7C29.388 22.448 29.682 22.238 29.878 22.07C30.102 21.874 30.228 21.65 30.256 21.398C30.172 21.426 30.004 21.482 29.752 21.566C29.528 21.65 29.374 21.762 29.29 21.902C29.262 21.79 29.164 21.734 28.996 21.734C28.884 21.734 28.772 21.748 28.66 21.776C28.576 21.804 28.52 21.818 28.492 21.818C28.492 21.482 28.632 21.188 28.912 20.936C29.192 20.656 29.584 20.348 30.088 20.012C30.732 19.564 31.124 19.256 31.264 19.088L29.626 19.76C29.458 19.788 29.206 19.83 28.87 19.886C28.534 19.942 28.254 20.04 28.03 20.18C27.834 20.292 27.736 20.474 27.736 20.726ZM28.072 24.296C28.072 24.408 28.086 24.52 28.114 24.632C28.142 24.716 28.198 24.8 28.282 24.884C28.394 24.772 28.702 24.548 29.206 24.212C29.71 23.848 29.962 23.61 29.962 23.498L29.92 23.372C29.584 23.4 29.192 23.512 28.744 23.708C28.296 23.876 28.072 24.072 28.072 24.296ZM28.282 26.564C28.506 26.424 28.8 26.27 29.164 26.102C29.528 25.934 29.808 25.78 30.004 25.64C30.228 25.5 30.34 25.36 30.34 25.22C30.06 25.22 29.724 25.276 29.332 25.388C28.968 25.528 28.618 25.598 28.282 25.598V26.564Z" fill="black"/>
</g>
<defs>
<clipPath id="clip0">
<rect width="43" height="33" fill="white"/>
</clipPath>
</defs>
</svg>
